<?xml version="1.0" encoding="UTF-8"?>
<!DOCTYPE svg PUBLIC "-//W3C//DTD SVG 1.1//EN" "http://www.w3.org/Graphics/SVG/1.1/DTD/svg11.dtd">
<svg xmlns="http://www.w3.org/2000/svg" version="1.1" width="32px" height="32px" style="shape-rendering:geometricPrecision; text-rendering:geometricPrecision; image-rendering:optimizeQuality; fill-rule:evenodd; clip-rule:evenodd" xmlns:xlink="http://www.w3.org/1999/xlink">
<g><path style="opacity:0.944" fill="#dcdfe5" d="M 12.5,7.5 C 12.5,9.83333 12.5,12.1667 12.5,14.5C 9.83333,14.5 7.16667,14.5 4.5,14.5C 4.5,12.1667 4.5,9.83333 4.5,7.5C 4.21478,5.71199 4.54811,4.04533 5.5,2.5C 7.5,2.5 9.5,2.5 11.5,2.5C 12.4519,4.04533 12.7852,5.71199 12.5,7.5 Z"/></g>
<g><path style="opacity:0.993" fill="#5c636f" d="M 4.5,7.5 C 4.5,9.83333 4.5,12.1667 4.5,14.5C 7.16667,14.5 9.83333,14.5 12.5,14.5C 12.5,12.1667 12.5,9.83333 12.5,7.5C 14.604,7.7989 16.604,7.46557 18.5,6.5C 17.675,5.61432 16.675,5.28099 15.5,5.5C 15.5,3.83333 15.5,2.16667 15.5,0.5C 18.8333,0.5 22.1667,0.5 25.5,0.5C 25.5,2.16667 25.5,3.83333 25.5,5.5C 24.325,5.28099 23.325,5.61432 22.5,6.5C 24.7427,7.47423 27.076,7.80756 29.5,7.5C 29.5234,15.1834 29.8567,22.8501 30.5,30.5C 20.5,30.5 10.5,30.5 0.5,30.5C 1.14325,22.8501 1.47659,15.1834 1.5,7.5C 2.5,7.5 3.5,7.5 4.5,7.5 Z"/></g>
<g><path style="opacity:1" fill="#65aefb" d="M 16.5,1.5 C 19.1667,1.5 21.8333,1.5 24.5,1.5C 24.5,2.5 24.5,3.5 24.5,4.5C 21.8333,4.5 19.1667,4.5 16.5,4.5C 16.5,3.5 16.5,2.5 16.5,1.5 Z"/></g>
<g><path style="opacity:1" fill="#65aefb" d="M 14.5,10.5 C 18.5,10.5 22.5,10.5 26.5,10.5C 26.5,12.1667 26.5,13.8333 26.5,15.5C 22.5,15.5 18.5,15.5 14.5,15.5C 14.5,13.8333 14.5,12.1667 14.5,10.5 Z"/></g>
<g><path style="opacity:1" fill="#c2c7cd" d="M 25.5,24.5 C 28.8606,25.2032 29.1939,26.5365 26.5,28.5C 25.5713,27.3112 25.238,25.9778 25.5,24.5 Z"/></g>
</svg>
